<svg xmlns="http://www.w3.org/2000/svg" xmlns:xlink="http://www.w3.org/1999/xlink" width="500" zoomAndPan="magnify" viewBox="0 0 375 374.999991" height="500" preserveAspectRatio="xMidYMid meet" version="1.0"><defs><g/><clipPath id="b9031c3be7"><path d="M 154.324219 119.207031 L 220 119.207031 L 220 218 L 154.324219 218 Z M 154.324219 119.207031 " clip-rule="nonzero"/></clipPath><clipPath id="330f28bfc2"><path d="M 154.324219 119.207031 L 220.324219 119.207031 L 220.324219 218.207031 L 154.324219 218.207031 Z M 154.324219 119.207031 " clip-rule="nonzero"/></clipPath><clipPath id="a09b051ba7"><path d="M 107 119.53125 L 122.136719 119.53125 L 122.136719 139.371094 L 107 139.371094 Z M 107 119.53125 " clip-rule="nonzero"/></clipPath><clipPath id="fece262524"><path d="M 109.875 120.375 C 109.425781 138.074219 109.351562 138.375 109.125 138.449219 C 108.898438 138.523438 108.300781 138.523438 108.148438 138.226562 C 107.773438 137.625 108.523438 134.925781 109.5 133.648438 C 110.625 132.226562 113.550781 130.050781 114.976562 130.5 C 116.550781 131.023438 117.449219 137.699219 118.050781 137.699219 C 118.351562 137.699219 118.199219 136.574219 118.574219 136.050781 C 119.101562 135.300781 120.75 134.101562 121.351562 134.101562 C 121.648438 134.101562 122.101562 134.398438 122.101562 134.625 C 122.101562 134.925781 121.273438 135.675781 121.050781 135.601562 C 120.824219 135.523438 120.675781 134.550781 120.824219 134.324219 C 120.976562 134.101562 121.5 134.023438 121.726562 134.175781 C 121.949219 134.324219 122.101562 134.773438 122.023438 135.226562 C 121.800781 136.199219 118.949219 138.976562 118.050781 139.273438 C 117.675781 139.351562 117.523438 139.351562 117.226562 139.125 C 116.476562 138.601562 114.976562 135.898438 114.675781 134.550781 C 114.449219 133.574219 115.273438 132.148438 114.898438 131.925781 C 114.375 131.625 111.601562 133.5 110.625 134.625 C 109.800781 135.675781 109.875 137.925781 109.273438 138.300781 C 108.976562 138.523438 108.449219 138.523438 108.148438 138.226562 C 106.949219 136.949219 107.398438 122.023438 108.375 120.226562 C 108.601562 119.773438 108.976562 119.625 109.199219 119.625 C 109.425781 119.625 109.875 120.375 109.875 120.375 " clip-rule="nonzero"/></clipPath><clipPath id="0ec204f542"><path d="M 137.144531 114.738281 L 159 114.738281 L 159 135.539062 L 137.144531 135.539062 Z M 137.144531 114.738281 " clip-rule="nonzero"/></clipPath><clipPath id="4616d6e143"><path d="M 139.800781 115.574219 C 139.648438 125.699219 139.199219 125.324219 139.199219 125.175781 C 139.273438 124.726562 141.824219 123.75 143.175781 123.523438 C 144.375 123.300781 146.25 123 146.773438 123.601562 C 147.375 124.273438 145.875 127.574219 146.324219 127.875 C 146.550781 128.023438 147.074219 127.273438 147.675781 127.125 C 148.726562 126.898438 151.351562 126.601562 152.175781 127.351562 C 153 128.101562 151.648438 130.949219 152.476562 131.773438 C 153.449219 132.75 157.726562 131.023438 158.550781 131.925781 C 159.226562 132.601562 158.851562 135.148438 158.476562 135.375 C 158.25 135.523438 157.273438 134.925781 157.273438 134.699219 C 157.273438 134.476562 158.25 133.949219 158.398438 134.101562 C 158.550781 134.25 158.550781 135.375 158.324219 135.449219 C 158.101562 135.523438 157.425781 135.148438 157.273438 134.773438 C 157.125 134.398438 158.101562 133.425781 157.800781 133.050781 C 157.273438 132.226562 151.949219 133.574219 151.050781 132.523438 C 150.375 131.699219 151.875 129.375 151.199219 128.625 C 150.300781 127.726562 145.800781 129.601562 144.976562 128.625 C 144.226562 127.800781 145.125 124.125 145.5 124.050781 C 145.648438 123.976562 146.175781 124.574219 146.101562 124.800781 C 145.875 125.476562 140.324219 127.648438 138.898438 126.601562 C 137.175781 125.324219 137.625 116.773438 138.300781 115.425781 C 138.523438 114.976562 138.898438 114.824219 139.125 114.824219 C 139.351562 114.824219 139.800781 115.574219 139.800781 115.574219 " clip-rule="nonzero"/></clipPath><clipPath id="7528421d72"><path d="M 138.640625 199.117188 L 163.683594 199.117188 L 163.683594 221.929688 L 138.640625 221.929688 Z M 138.640625 199.117188 " clip-rule="nonzero"/></clipPath><clipPath id="d1a5a49b0d"><path d="M 138.75 221.023438 C 142.050781 215.25 144.601562 212.550781 147.148438 211.199219 C 149.851562 209.773438 155.101562 210.976562 156.675781 209.101562 C 158.101562 207.375 155.550781 202.5 156.824219 200.925781 C 158.023438 199.5 163.125 199.125 163.5 199.574219 C 163.648438 199.800781 163.050781 200.773438 162.898438 200.773438 C 162.75 200.773438 162.449219 199.425781 162.523438 199.351562 C 162.601562 199.273438 163.648438 200.101562 163.574219 200.398438 C 163.5 200.851562 161.925781 201.449219 161.023438 201.675781 C 160.050781 201.898438 158.625 201.226562 157.949219 201.898438 C 156.75 203.023438 158.773438 208.875 157.199219 210.523438 C 155.699219 212.175781 151.199219 210.824219 148.800781 211.949219 C 146.550781 213 144.449219 215.023438 142.949219 216.75 C 141.601562 218.25 140.925781 221.476562 140.023438 221.699219 C 139.574219 221.851562 138.75 221.023438 138.75 221.023438 " clip-rule="nonzero"/></clipPath><clipPath id="c671d9eb66"><path d="M 116.164062 202 L 126.78125 202 L 126.78125 215 L 116.164062 215 Z M 116.164062 202 " clip-rule="nonzero"/></clipPath><clipPath id="d409eac37d"><path d="M 116.175781 214.273438 C 116.625 204.824219 117.074219 204.898438 117.75 204.824219 C 119.25 204.675781 123.898438 206.625 124.949219 205.726562 C 125.699219 205.125 124.648438 202.574219 125.101562 202.199219 C 125.398438 201.976562 126.375 202.273438 126.449219 202.5 C 126.523438 202.726562 126.074219 203.398438 125.851562 203.398438 C 125.625 203.398438 124.875 202.726562 124.949219 202.5 C 125.023438 202.273438 125.851562 201.898438 126.148438 202.050781 C 126.675781 202.425781 126.75 205.800781 126.449219 206.625 C 126.300781 207 126.148438 207.148438 125.699219 207.300781 C 124.5 207.675781 119.023438 205.050781 117.675781 206.25 C 116.324219 207.449219 118.050781 213.074219 117.675781 214.273438 C 117.523438 214.648438 117.375 214.949219 117.148438 214.949219 C 116.925781 215.023438 116.175781 214.273438 116.175781 214.273438 " clip-rule="nonzero"/></clipPath><clipPath id="e0aeabfea6"><path d="M 96.476562 155.039062 L 110.992188 155.039062 L 110.992188 165.960938 L 96.476562 165.960938 Z M 96.476562 155.039062 " clip-rule="nonzero"/></clipPath><clipPath id="4ae23ddd10"><path d="M 108.75 165.148438 C 106.574219 157.050781 98.324219 158.101562 97.125 157.050781 C 96.675781 156.675781 96.523438 156 96.75 155.773438 C 97.273438 155.101562 102.675781 156.375 105 156.898438 C 106.726562 157.273438 108.449219 157.425781 109.351562 158.398438 C 110.25 159.375 110.476562 161.550781 110.398438 162.675781 C 110.324219 163.425781 110.101562 164.175781 109.726562 164.476562 C 109.5 164.699219 109.125 164.625 108.824219 164.625 C 108.449219 164.625 107.925781 164.625 107.699219 164.324219 C 107.25 163.726562 107.398438 160.5 107.398438 160.5 C 107.398438 160.5 107.773438 162.375 107.476562 162.601562 C 107.324219 162.75 106.648438 162.601562 106.5 162.375 C 106.199219 162 106.351562 160.574219 106.648438 159.898438 C 106.875 159.375 107.476562 158.625 107.773438 158.699219 C 108.074219 158.773438 108.523438 159.75 108.523438 160.351562 C 108.523438 161.023438 107.925781 162.523438 107.398438 162.601562 C 106.800781 162.75 105 161.101562 104.925781 160.5 C 104.851562 160.125 105.300781 159.675781 105.523438 159.601562 C 105.75 159.523438 106.273438 159.75 106.351562 159.976562 C 106.425781 160.199219 105.898438 161.101562 105.675781 161.101562 C 105.449219 161.101562 104.851562 160.351562 104.925781 160.125 C 105 159.898438 105.898438 159.601562 106.125 159.75 C 106.351562 159.898438 106.273438 160.875 106.050781 161.023438 C 105.824219 161.175781 104.925781 160.726562 104.925781 160.5 C 104.925781 160.273438 105.75 159.75 106.199219 159.824219 C 106.726562 159.898438 107.925781 161.023438 107.851562 161.324219 C 107.773438 161.550781 106.949219 161.699219 106.875 161.625 C 106.726562 161.476562 108.148438 159.601562 108.300781 159.675781 C 108.523438 159.75 108.074219 162.824219 107.550781 163.273438 C 107.25 163.574219 106.648438 163.648438 106.425781 163.425781 C 105.976562 163.050781 105.824219 160.351562 106.351562 159.675781 C 106.726562 159.226562 107.773438 158.851562 108.226562 159.148438 C 108.898438 159.601562 108.976562 163.5 108.976562 163.5 C 108.976562 163.5 109.125 160.425781 108.074219 159.375 C 106.351562 157.726562 98.476562 157.949219 97.125 157.050781 C 96.75 156.75 96.523438 156.449219 96.523438 156.226562 C 96.523438 156 96.75 155.699219 97.125 155.550781 C 97.949219 155.175781 100.125 155.476562 101.925781 155.773438 C 104.175781 156.148438 108.226562 156.226562 109.574219 157.875 C 110.925781 159.449219 110.699219 164.25 110.25 165.300781 C 110.101562 165.675781 109.648438 165.898438 109.425781 165.898438 C 109.199219 165.898438 108.75 165.148438 108.75 165.148438 " clip-rule="nonzero"/></clipPath><clipPath id="dba47d4ae8"><path d="M 130.558594 168.273438 L 146.757812 168.273438 L 146.757812 188 L 130.558594 188 Z M 130.558594 168.273438 " clip-rule="nonzero"/></clipPath><clipPath id="7e1277d55f"><path d="M 130.574219 176.925781 C 132.824219 172.949219 133.949219 172.199219 134.925781 171.75 C 135.75 171.375 136.648438 171.601562 137.476562 171.148438 C 138.449219 170.625 139.199219 168.375 140.25 168.375 C 141.675781 168.300781 144.300781 171.375 145.273438 172.800781 C 145.949219 173.699219 146.25 174.523438 146.398438 175.425781 C 146.550781 176.25 146.699219 177.148438 146.398438 178.050781 C 146.101562 179.101562 145.125 181.050781 144.300781 181.125 C 143.398438 181.199219 142.425781 178.425781 141.074219 177.449219 C 139.648438 176.324219 136.351562 175.875 135.824219 174.976562 C 135.601562 174.523438 135.601562 174 135.824219 173.699219 C 136.125 173.398438 136.875 173.25 137.550781 173.398438 C 138.75 173.625 142.199219 175.800781 142.125 176.25 C 142.125 176.398438 141.675781 176.625 141.300781 176.550781 C 140.476562 176.476562 137.773438 174.601562 137.476562 173.851562 C 137.324219 173.476562 137.476562 173.101562 137.699219 172.875 C 138 172.574219 138.824219 172.425781 139.5 172.574219 C 140.699219 172.800781 143.476562 174.375 143.925781 175.199219 C 144.148438 175.574219 144.148438 176.101562 143.925781 176.25 C 143.324219 176.625 138.375 174.523438 137.773438 173.476562 C 137.476562 172.949219 137.550781 172.199219 137.851562 171.898438 C 138.148438 171.601562 139.050781 171.601562 139.726562 171.75 C 140.550781 171.898438 141.523438 172.425781 142.273438 173.101562 C 143.25 173.925781 145.050781 176.398438 144.824219 176.699219 C 144.675781 176.925781 143.925781 176.699219 143.398438 176.398438 C 142.351562 175.800781 140.023438 173.398438 139.648438 172.5 C 139.5 172.125 139.5 171.824219 139.648438 171.601562 C 139.800781 171.375 140.25 171.300781 140.625 171.375 C 141.375 171.601562 142.800781 173.023438 143.324219 173.925781 C 143.773438 174.601562 144.226562 175.648438 143.925781 176.023438 C 143.398438 176.625 140.324219 174.898438 138.675781 175.273438 C 136.875 175.648438 134.324219 178.800781 133.5 178.726562 C 133.199219 178.726562 132.976562 178.425781 132.898438 178.125 C 132.75 177.601562 132.898438 176.476562 133.351562 175.875 C 134.023438 175.050781 136.800781 173.773438 137.175781 174 C 137.324219 174.074219 137.324219 174.523438 137.175781 174.824219 C 136.800781 175.425781 134.773438 176.699219 134.023438 176.550781 C 133.574219 176.476562 132.976562 175.875 133.050781 175.5 C 133.199219 174.75 137.398438 172.875 138.449219 172.875 C 138.898438 172.875 139.273438 173.101562 139.351562 173.324219 C 139.425781 173.550781 139.351562 173.925781 139.125 174.148438 C 138.449219 174.824219 134.175781 176.324219 133.574219 175.949219 C 133.351562 175.800781 133.273438 175.351562 133.425781 175.050781 C 133.800781 174.300781 136.5 172.800781 138 172.351562 C 139.273438 171.976562 140.851562 171.824219 141.898438 172.273438 C 142.949219 172.726562 143.925781 173.925781 144.300781 174.976562 C 144.675781 176.023438 144.75 178.273438 144.300781 178.574219 C 144.074219 178.726562 143.324219 178.5 143.101562 178.125 C 142.726562 177.601562 143.25 175.351562 143.101562 175.351562 C 142.949219 175.351562 142.648438 178.425781 142.050781 178.875 C 141.675781 179.101562 141.074219 179.101562 140.773438 178.875 C 140.25 178.425781 140.625 176.476562 140.023438 175.425781 C 139.351562 174.300781 136.726562 173.324219 136.5 172.5 C 136.425781 172.125 136.648438 171.675781 136.949219 171.449219 C 137.476562 171 139.125 170.851562 140.175781 171.074219 C 141.226562 171.300781 142.351562 172.050781 143.101562 172.726562 C 143.773438 173.324219 144.148438 174.074219 144.523438 174.898438 C 144.898438 175.726562 145.351562 176.925781 145.199219 177.601562 C 145.125 177.976562 144.898438 178.425781 144.523438 178.5 C 143.851562 178.574219 142.574219 176.25 141.226562 175.726562 C 139.574219 175.050781 135.976562 174.976562 135 175.425781 C 134.625 175.574219 134.550781 175.800781 134.398438 176.25 C 134.023438 177.226562 133.648438 179.773438 134.101562 181.425781 C 134.625 183.148438 136.800781 185.773438 137.625 186.300781 C 137.925781 186.523438 138.300781 186.601562 138.449219 186.449219 C 138.601562 186.300781 138.523438 185.925781 138.523438 185.324219 C 138.601562 183.449219 139.199219 175.199219 138.375 173.550781 C 138.074219 172.949219 137.550781 172.648438 137.175781 172.648438 C 136.726562 172.648438 136.125 173.25 135.824219 173.925781 C 135.226562 175.273438 135 180.75 135.523438 180.898438 C 136.050781 181.050781 138.300781 174 139.5 172.726562 C 140.023438 172.199219 140.550781 171.824219 141.074219 171.898438 C 141.675781 171.976562 142.425781 173.023438 142.800781 173.851562 C 143.25 174.824219 143.699219 177.226562 143.25 177.675781 C 143.023438 177.898438 142.125 177.824219 141.976562 177.601562 C 141.824219 177.375 142.050781 176.699219 142.273438 176.550781 C 142.5 176.398438 143.175781 176.625 143.324219 176.851562 C 143.476562 177.074219 143.175781 177.75 142.949219 177.898438 C 142.726562 178.050781 142.351562 177.898438 142.050781 177.675781 C 141.449219 177.148438 141.449219 173.625 140.773438 173.550781 C 139.875 173.476562 137.925781 179.625 136.800781 181.050781 C 136.199219 181.726562 135.675781 182.476562 135.226562 182.398438 C 134.773438 182.324219 134.25 181.648438 134.023438 180.898438 C 133.574219 179.324219 134.023438 174.300781 134.773438 172.726562 C 135.148438 171.976562 135.675781 171.523438 136.273438 171.300781 C 136.875 171.074219 137.699219 170.925781 138.226562 171.226562 C 138.976562 171.601562 139.574219 172.648438 139.949219 173.925781 C 140.699219 176.476562 140.925781 184.351562 140.023438 186.449219 C 139.648438 187.351562 139.050781 187.875 138.375 187.949219 C 137.625 188.101562 136.5 187.425781 135.675781 186.75 C 134.625 185.851562 133.5 184.351562 132.976562 182.773438 C 132.375 180.898438 132.375 177.375 132.898438 175.875 C 133.273438 174.976562 133.726562 174.375 134.550781 174 C 135.898438 173.398438 139.050781 173.625 140.773438 174.074219 C 142.199219 174.449219 143.851562 175.125 144.449219 175.949219 C 144.898438 176.625 145.125 178.050781 144.824219 178.351562 C 144.675781 178.5 144.148438 178.425781 143.851562 178.199219 C 143.175781 177.675781 142.875 174.824219 141.976562 173.699219 C 141.226562 172.726562 139.351562 172.351562 138.976562 171.675781 C 138.75 171.300781 138.75 170.773438 138.898438 170.550781 C 139.050781 170.324219 139.726562 170.101562 140.023438 170.25 C 140.398438 170.398438 140.925781 171.523438 140.851562 171.976562 C 140.851562 172.273438 140.625 172.574219 140.25 172.726562 C 139.574219 173.023438 136.648438 172.875 136.5 172.5 C 136.425781 172.273438 137.023438 171.523438 137.476562 171.449219 C 138.226562 171.375 139.800781 173.023438 140.550781 173.699219 C 141.074219 174.148438 141.449219 174.449219 141.675781 175.050781 C 141.976562 175.800781 142.050781 178.050781 141.824219 178.125 C 141.675781 178.199219 141.300781 177.75 141.226562 177.375 C 141.148438 176.773438 141.824219 175.199219 142.425781 174.675781 C 142.949219 174.226562 143.925781 173.851562 144.300781 174.148438 C 144.898438 174.523438 144.898438 177.449219 144.601562 178.125 C 144.449219 178.5 144.148438 178.726562 143.925781 178.726562 C 143.699219 178.726562 143.324219 178.5 143.101562 178.125 C 142.726562 177.523438 142.949219 175.5 142.5 174.75 C 142.199219 174.226562 141.675781 173.851562 141.074219 173.699219 C 140.398438 173.476562 139.425781 173.476562 138.449219 173.773438 C 137.101562 174.148438 135.074219 176.25 133.949219 176.398438 C 133.351562 176.476562 132.601562 176.25 132.449219 175.949219 C 132.300781 175.648438 132.523438 174.898438 132.824219 174.675781 C 133.125 174.449219 133.875 174.976562 134.324219 174.75 C 134.773438 174.523438 134.925781 173.550781 135.449219 173.25 C 135.976562 172.949219 136.726562 172.800781 137.324219 172.800781 C 137.925781 172.800781 138.824219 172.726562 139.125 173.023438 C 139.351562 173.25 139.425781 173.699219 139.273438 174 C 138.824219 174.824219 134.550781 176.851562 133.648438 176.625 C 133.273438 176.550781 132.976562 176.023438 132.976562 175.648438 C 133.050781 175.125 133.949219 174.300781 134.699219 173.925781 C 135.449219 173.550781 136.875 173.398438 137.476562 173.625 C 137.925781 173.773438 138.449219 174.300781 138.375 174.675781 C 138.226562 175.273438 135.75 175.574219 135.074219 176.324219 C 134.476562 176.925781 134.625 178.273438 134.175781 178.574219 C 133.875 178.800781 133.273438 178.800781 133.125 178.574219 C 132.976562 178.351562 133.050781 177.601562 133.425781 177.074219 C 134.101562 176.101562 136.425781 174.523438 137.925781 174.074219 C 139.273438 173.699219 141.074219 173.851562 141.976562 174.148438 C 142.5 174.300781 143.023438 174.675781 143.101562 174.976562 C 143.101562 175.199219 142.875 175.574219 142.648438 175.574219 C 142.125 175.574219 139.574219 173.101562 139.574219 172.351562 C 139.574219 171.898438 140.175781 171.375 140.625 171.375 C 141.523438 171.375 143.925781 174.375 144.675781 175.574219 C 145.050781 176.25 145.5 177.074219 145.273438 177.375 C 145.050781 177.675781 144.148438 177.824219 143.625 177.601562 C 142.875 177.226562 142.574219 175.351562 141.75 174.601562 C 140.925781 173.851562 138.75 173.699219 138.523438 173.175781 C 138.449219 172.949219 138.601562 172.5 138.824219 172.425781 C 139.351562 172.199219 141.898438 173.699219 142.800781 174.300781 C 143.398438 174.675781 143.925781 174.976562 144.074219 175.351562 C 144.148438 175.648438 144.148438 176.101562 143.925781 176.25 C 143.324219 176.550781 138.601562 174.523438 138.523438 174.074219 C 138.523438 173.925781 138.976562 173.625 139.273438 173.625 C 139.949219 173.625 142.050781 175.125 142.425781 175.875 C 142.648438 176.324219 142.648438 177.148438 142.351562 177.375 C 141.675781 177.75 136.949219 175.425781 136.726562 174.75 C 136.648438 174.523438 136.875 174.148438 137.101562 174.074219 C 137.476562 173.925781 138.148438 174.226562 138.824219 174.523438 C 140.023438 175.050781 142.5 176.175781 143.476562 177.375 C 144.226562 178.351562 144.898438 180.449219 144.601562 180.898438 C 144.449219 181.125 144 181.199219 143.773438 181.125 C 143.550781 181.050781 143.25 180.601562 143.25 180.226562 C 143.25 179.625 144.675781 178.648438 144.898438 177.75 C 145.125 176.925781 145.273438 176.175781 144.898438 175.273438 C 144.300781 173.773438 140.476562 171.75 139.875 170.398438 C 139.574219 169.726562 139.574219 168.75 139.875 168.523438 C 140.101562 168.375 140.773438 168.449219 140.925781 168.601562 C 141.074219 168.75 141.148438 169.199219 141 169.574219 C 140.773438 170.25 139.726562 171.148438 138.75 171.898438 C 137.398438 172.949219 134.324219 173.625 133.199219 174.824219 C 132.375 175.648438 132.300781 177.523438 131.773438 177.675781 C 131.398438 177.75 130.574219 176.925781 130.574219 176.925781 " clip-rule="nonzero"/></clipPath><clipPath id="631363ed46"><path d="M 141.816406 176.464844 L 143.339844 176.464844 L 143.339844 178 L 141.816406 178 Z M 141.816406 176.464844 " clip-rule="nonzero"/></clipPath><clipPath id="54191d31ec"><path d="M 143.324219 177 C 142.726562 177.976562 142.125 177.824219 141.976562 177.601562 C 141.824219 177.375 141.976562 176.773438 142.199219 176.625 C 142.425781 176.476562 143.175781 176.699219 143.175781 176.699219 " clip-rule="nonzero"/></clipPath><clipPath id="e507472a5f"><path d="M 111.136719 163.132812 L 126 163.132812 L 126 177.820312 L 111.136719 177.820312 Z M 111.136719 163.132812 " clip-rule="nonzero"/></clipPath><clipPath id="7e16b5db6e"><path d="M 111.449219 172.273438 C 119.625 165.898438 123.523438 163.273438 124.273438 163.648438 C 124.574219 163.800781 124.425781 164.699219 124.5 164.699219 C 124.574219 164.699219 124.425781 163.425781 124.648438 163.273438 C 124.800781 163.199219 125.324219 163.273438 125.476562 163.574219 C 126.074219 164.851562 121.5 176.925781 120.074219 177.601562 C 119.699219 177.75 119.25 177.523438 119.023438 177.226562 C 118.574219 176.550781 118.800781 174.300781 119.023438 172.800781 C 119.25 171.148438 119.625 168.148438 120.375 167.699219 C 120.75 167.476562 121.5 167.550781 121.726562 167.925781 C 122.101562 168.601562 120.523438 172.425781 119.851562 173.324219 C 119.550781 173.699219 119.25 173.925781 118.949219 173.925781 C 118.648438 173.925781 118.273438 173.625 118.050781 173.175781 C 117.675781 172.273438 117.824219 168.375 118.199219 168.226562 C 118.5 168.148438 118.949219 170.101562 119.550781 170.101562 C 120.449219 170.175781 122.324219 166.273438 123.375 165.824219 C 123.898438 165.601562 124.726562 165.675781 124.800781 165.898438 C 125.023438 166.425781 121.425781 170.699219 120.449219 170.699219 C 120 170.699219 119.398438 169.875 119.398438 169.5 C 119.398438 169.199219 119.773438 168.976562 120.074219 168.523438 C 120.75 167.699219 122.699219 165.148438 123.523438 164.851562 C 123.898438 164.699219 124.351562 164.773438 124.5 165 C 124.648438 165.226562 124.648438 165.523438 124.5 165.976562 C 123.898438 167.476562 118.050781 173.699219 116.476562 174 C 115.949219 174.074219 115.425781 173.773438 115.273438 173.476562 C 115.125 173.101562 115.425781 172.574219 115.726562 171.976562 C 116.398438 170.773438 119.023438 167.773438 119.851562 166.949219 C 120.148438 166.648438 120.375 166.351562 120.523438 166.425781 C 120.75 166.5 121.050781 166.949219 120.976562 167.324219 C 120.898438 168 119.398438 169.574219 118.800781 169.875 C 118.5 170.023438 118.050781 170.023438 117.898438 169.875 C 117.75 169.648438 117.976562 168.601562 118.199219 168.523438 C 118.351562 168.449219 119.101562 169.351562 119.023438 169.574219 C 118.949219 169.800781 118.425781 170.101562 118.199219 170.023438 C 117.976562 169.949219 117.601562 169.425781 117.601562 169.050781 C 117.675781 168.375 119.023438 166.875 119.851562 166.425781 C 120.449219 166.125 121.425781 165.898438 121.648438 166.125 C 121.875 166.351562 121.726562 166.949219 121.5 167.550781 C 120.898438 168.976562 117.675781 173.699219 116.476562 174 C 116.023438 174.148438 115.351562 173.773438 115.273438 173.476562 C 115.199219 173.175781 115.574219 172.800781 116.023438 172.273438 C 117.074219 170.925781 120.824219 166.574219 122.476562 165.601562 C 123.300781 165.148438 124.273438 164.773438 124.5 165 C 124.726562 165.300781 123.523438 167.476562 122.699219 168.226562 C 121.949219 168.898438 119.925781 169.574219 119.773438 169.425781 C 119.625 169.199219 122.699219 165.976562 123.675781 165.675781 C 124.125 165.523438 124.726562 165.675781 124.800781 165.898438 C 125.023438 166.5 121.726562 170.550781 120.375 170.925781 C 119.550781 171.148438 118.425781 170.773438 118.050781 170.25 C 117.675781 169.726562 117.898438 168.449219 118.125 167.925781 C 118.273438 167.550781 118.726562 167.25 118.949219 167.25 C 119.25 167.324219 119.550781 167.851562 119.699219 168.375 C 119.925781 169.351562 119.625 172.800781 119.324219 172.875 C 119.175781 172.875 118.875 172.425781 118.800781 172.050781 C 118.726562 171.226562 119.550781 168.300781 120.300781 167.851562 C 120.675781 167.550781 121.425781 167.550781 121.726562 167.925781 C 122.476562 168.898438 120.976562 177.226562 120.074219 177.601562 C 119.773438 177.75 119.101562 177.375 118.949219 176.851562 C 118.5 175.574219 120.675781 170.851562 121.648438 168.449219 C 122.398438 166.574219 123.375 164.25 124.199219 163.648438 C 124.574219 163.351562 125.175781 163.273438 125.324219 163.425781 C 125.476562 163.574219 125.398438 164.398438 125.023438 164.925781 C 124.050781 166.273438 119.25 167.925781 117 169.5 C 115.199219 170.773438 113.476562 173.101562 112.425781 173.398438 C 111.976562 173.550781 111.449219 173.476562 111.300781 173.25 C 111.148438 173.023438 111.449219 172.273438 111.449219 172.273438 " clip-rule="nonzero"/></clipPath><clipPath id="b4970a8e79"><path d="M 159.859375 163.554688 L 168.453125 163.554688 L 168.453125 176.488281 L 159.859375 176.488281 Z M 159.859375 163.554688 " clip-rule="nonzero"/></clipPath><clipPath id="12fdc220c8"><path d="M 168.449219 170.773438 C 165.601562 176.324219 165 176.476562 164.550781 176.175781 C 163.351562 175.351562 161.101562 167.398438 161.699219 166.351562 C 161.925781 165.976562 162.375 165.898438 162.824219 166.050781 C 164.023438 166.425781 168.300781 170.851562 168.375 172.050781 C 168.375 172.5 167.925781 173.101562 167.550781 173.101562 C 166.875 173.175781 165.449219 171.449219 164.550781 170.25 C 163.351562 168.75 161.25 165.449219 161.324219 164.398438 C 161.398438 163.949219 161.699219 163.574219 162 163.574219 C 162.976562 163.648438 166.949219 170.398438 167.175781 171.898438 C 167.25 172.425781 167.101562 172.875 166.875 173.023438 C 166.648438 173.175781 166.273438 173.101562 165.824219 172.800781 C 164.550781 171.976562 160.273438 166.273438 159.976562 164.925781 C 159.898438 164.476562 159.976562 164.101562 160.199219 164.023438 C 160.425781 163.949219 161.476562 164.550781 161.476562 164.699219 C 161.476562 164.851562 160.199219 165.148438 160.050781 165 C 159.898438 164.851562 160.125 164.101562 160.351562 163.949219 C 160.5 163.800781 160.800781 163.875 161.101562 164.023438 C 162.148438 164.625 165.976562 169.351562 166.199219 170.851562 C 166.273438 171.523438 165.976562 172.351562 165.675781 172.351562 C 165 172.425781 162.300781 167.550781 161.699219 166.050781 C 161.398438 165.300781 161.175781 164.625 161.324219 164.175781 C 161.398438 163.875 161.699219 163.574219 162 163.574219 C 163.050781 163.648438 168.375 170.550781 168.375 172.050781 C 168.375 172.574219 167.925781 173.023438 167.550781 173.101562 C 167.101562 173.175781 166.351562 172.425781 165.675781 171.824219 C 164.625 170.925781 162.449219 168.898438 162 167.773438 C 161.773438 167.101562 161.773438 166.273438 162 166.050781 C 162.148438 165.898438 162.675781 165.976562 162.976562 166.199219 C 163.800781 166.875 164.851562 170.851562 165.300781 172.5 C 165.601562 173.550781 165.898438 175.050781 165.675781 175.199219 C 165.523438 175.273438 165.074219 174.976562 165 174.675781 C 164.851562 173.925781 166.425781 170.476562 167.175781 169.949219 C 167.550781 169.726562 168 169.800781 168.226562 169.949219 C 168.449219 170.101562 168.449219 170.773438 168.449219 170.773438 " clip-rule="nonzero"/></clipPath><clipPath id="9f5d6a11e2"><path d="M 159.210938 163.105469 L 168.578125 163.105469 L 168.578125 175.585938 L 159.210938 175.585938 Z M 159.210938 163.105469 " clip-rule="nonzero"/></clipPath><clipPath id="bdcba7507d"><path d="M 164.398438 171.601562 C 165 164.851562 165.449219 165.074219 165.75 165.375 C 166.351562 166.050781 166.648438 168.601562 166.800781 169.875 C 166.949219 170.773438 167.175781 171.75 166.949219 172.125 C 166.800781 172.425781 166.199219 172.648438 166.050781 172.5 C 165.75 172.273438 166.351562 169.351562 166.875 168.898438 C 167.175781 168.675781 167.925781 168.675781 168.148438 168.898438 C 168.523438 169.351562 167.550781 171.675781 167.023438 172.800781 C 166.574219 173.773438 165.976562 175.050781 165.375 175.351562 C 165.074219 175.5 164.625 175.574219 164.398438 175.351562 C 163.875 174.824219 164.023438 171.976562 164.324219 170.625 C 164.625 169.5 165.300781 167.925781 165.898438 167.699219 C 166.273438 167.550781 166.875 167.699219 167.101562 168.074219 C 167.550781 168.976562 166.273438 173.773438 165.449219 174.675781 C 165.074219 175.050781 164.699219 175.273438 164.25 175.125 C 163.199219 174.75 160.875 170.398438 160.351562 168.976562 C 160.125 168.375 159.898438 167.699219 160.125 167.476562 C 160.273438 167.25 160.949219 167.175781 161.25 167.398438 C 161.625 167.699219 161.476562 168.75 161.851562 169.5 C 162.375 170.476562 164.476562 171.824219 164.476562 172.5 C 164.476562 172.800781 164.175781 173.175781 163.949219 173.175781 C 163.125 173.101562 159.226562 164.101562 159.75 163.425781 C 159.898438 163.199219 160.5 163.273438 160.875 163.574219 C 161.851562 164.398438 163.351562 170.398438 163.273438 171.675781 C 163.273438 172.050781 163.125 172.351562 162.898438 172.425781 C 162.675781 172.5 162.226562 172.5 161.925781 172.199219 C 161.25 171.601562 160.199219 168.601562 160.273438 167.625 C 160.351562 167.101562 160.726562 166.574219 160.949219 166.574219 C 161.175781 166.574219 161.773438 167.101562 161.773438 167.324219 C 161.773438 167.550781 160.726562 168.074219 160.5 167.925781 C 160.273438 167.773438 160.273438 166.949219 160.425781 166.800781 C 160.574219 166.648438 161.175781 166.574219 161.550781 166.800781 C 162.226562 167.25 162.898438 169.574219 163.125 170.625 C 163.273438 171.226562 163.351562 171.898438 163.125 172.199219 C 162.976562 172.425781 162.601562 172.574219 162.375 172.5 C 161.925781 172.351562 161.398438 171 160.949219 170.023438 C 160.425781 168.898438 159.824219 167.175781 159.601562 165.976562 C 159.449219 165.148438 159.300781 164.175781 159.523438 163.726562 C 159.675781 163.425781 159.976562 163.125 160.273438 163.199219 C 161.25 163.425781 164.398438 169.5 165.074219 171.449219 C 165.375 172.351562 165.675781 173.25 165.375 173.625 C 165.148438 174 164.324219 174.148438 163.726562 173.925781 C 162.824219 173.625 161.398438 171.75 160.800781 170.625 C 160.273438 169.726562 159.675781 168.226562 159.976562 167.773438 C 160.199219 167.476562 160.875 167.324219 161.398438 167.550781 C 162.523438 168.074219 164.851562 172.574219 165.226562 173.851562 C 165.375 174.375 165.449219 174.824219 165.226562 175.050781 C 165.074219 175.199219 164.476562 175.351562 164.25 175.125 C 163.800781 174.675781 164.398438 171.523438 164.773438 170.175781 C 165.074219 169.199219 165.375 167.925781 165.898438 167.699219 C 166.273438 167.550781 166.949219 167.773438 167.101562 168.074219 C 167.324219 168.601562 166.050781 169.949219 165.75 171.074219 C 165.449219 172.351562 165.976562 174.675781 165.449219 175.199219 C 165.226562 175.5 164.550781 175.574219 164.398438 175.351562 C 164.023438 174.824219 165.898438 169.574219 166.875 168.898438 C 167.25 168.601562 167.925781 168.601562 168.148438 168.898438 C 168.523438 169.351562 168.074219 171.898438 167.550781 172.648438 C 167.175781 173.175781 166.425781 173.699219 166.050781 173.476562 C 165.226562 173.101562 164.25 166.875 164.773438 166.273438 C 164.925781 166.050781 165.449219 166.125 165.675781 166.351562 C 166.199219 166.875 166.273438 170.699219 165.898438 171.601562 C 165.75 171.976562 165.375 172.273438 165.148438 172.273438 C 164.925781 172.273438 164.398438 171.601562 164.398438 171.601562 " clip-rule="nonzero"/></clipPath><clipPath id="2ad7cfa1ef"><path d="M 215 93 L 270 93 L 270 101.300781 L 215 101.300781 Z M 215 93 " clip-rule="nonzero"/></clipPath><clipPath id="88d3a1942b"><path d="M 203.625 60.050781 L 281.625 60.050781 L 281.625 97 L 203.625 97 Z M 203.625 60.050781 " clip-rule="nonzero"/></clipPath><clipPath id="d47eb1d8a3"><path d="M 146.324219 191 L 226.574219 191 L 226.574219 246.449219 L 146.324219 246.449219 Z M 146.324219 191 " clip-rule="nonzero"/></clipPath></defs><g clip-path="url(#b9031c3be7)"><path fill="#000000" d="M 180.789062 119.535156 L 180.789062 145.757812 L 154.648438 145.757812 L 154.648438 158.867188 L 180.789062 158.867188 L 180.789062 217.867188 L 193.859375 217.867188 L 193.859375 158.867188 L 219.996094 158.867188 L 219.996094 145.757812 L 193.859375 145.757812 L 193.859375 119.535156 Z M 180.789062 119.535156 " fill-opacity="1" fill-rule="nonzero"/></g><g clip-path="url(#330f28bfc2)"><path stroke-linecap="butt" transform="matrix(0.130693, 0, 0, 0.13111, 146.481338, 107.243467)" fill="none" stroke-linejoin="miter" d="M 262.506083 93.751055 L 262.506083 293.756256 L 62.490687 293.756256 L 62.490687 393.743959 L 262.506083 393.743959 L 262.506083 843.748211 L 362.513781 843.748211 L 362.513781 393.743959 L 562.499289 393.743959 L 562.499289 293.756256 L 362.513781 293.756256 L 362.513781 93.751055 Z M 262.506083 93.751055 " stroke="#000000" stroke-width="5" stroke-opacity="1" stroke-miterlimit="4"/></g><g fill="#000000" fill-opacity="1"><g transform="translate(96.903521, 214.16082)"><g><path d="M 41.90625 1.359375 C 35.351562 1.359375 29.519531 0.550781 24.40625 -1.0625 C 19.300781 -2.675781 15.046875 -4.796875 11.640625 -7.421875 C 8.234375 -10.054688 5.625 -12.945312 3.8125 -16.09375 L 14.09375 -28.640625 L 15.71875 -28.640625 C 18.5625 -24.421875 22.171875 -21.0625 26.546875 -18.5625 C 30.921875 -16.0625 36.039062 -14.8125 41.90625 -14.8125 C 46.90625 -14.8125 50.675781 -15.863281 53.21875 -17.96875 C 55.757812 -20.082031 57.03125 -22.992188 57.03125 -26.703125 C 57.03125 -28.941406 56.617188 -30.816406 55.796875 -32.328125 C 54.984375 -33.835938 53.625 -35.128906 51.71875 -36.203125 C 49.820312 -37.285156 47.257812 -38.210938 44.03125 -38.984375 L 31.875 -41.765625 C 23.382812 -43.703125 17.054688 -46.921875 12.890625 -51.421875 C 8.734375 -55.929688 6.65625 -61.785156 6.65625 -68.984375 C 6.65625 -74.335938 7.988281 -79.039062 10.65625 -83.09375 C 13.332031 -87.144531 17.222656 -90.289062 22.328125 -92.53125 C 27.441406 -94.769531 33.554688 -95.890625 40.671875 -95.890625 C 47.953125 -95.890625 54.191406 -94.929688 59.390625 -93.015625 C 64.585938 -91.097656 68.972656 -88.15625 72.546875 -84.1875 L 63.296875 -71.515625 L 61.6875 -71.515625 C 59.007812 -74.316406 55.945312 -76.414062 52.5 -77.8125 C 49.050781 -79.21875 45.109375 -79.921875 40.671875 -79.921875 C 35.535156 -79.921875 31.628906 -79.015625 28.953125 -77.203125 C 26.285156 -75.390625 24.953125 -72.890625 24.953125 -69.703125 C 24.953125 -66.722656 25.890625 -64.347656 27.765625 -62.578125 C 29.640625 -60.816406 32.882812 -59.441406 37.5 -58.453125 L 49.921875 -55.859375 C 59.097656 -53.921875 65.753906 -50.632812 69.890625 -46 C 74.035156 -41.363281 76.109375 -35.320312 76.109375 -27.875 C 76.109375 -21.96875 74.832031 -16.828125 72.28125 -12.453125 C 69.738281 -8.078125 65.898438 -4.679688 60.765625 -2.265625 C 55.640625 0.148438 49.351562 1.359375 41.90625 1.359375 Z M 41.90625 1.359375 "/></g></g></g><g clip-path="url(#a09b051ba7)"><g clip-path="url(#fece262524)"><path fill="#ffffff" d="M 105.148438 116.625 L 125.101562 116.625 L 125.101562 142.273438 L 105.148438 142.273438 Z M 105.148438 116.625 " fill-opacity="1" fill-rule="nonzero"/></g></g><g clip-path="url(#0ec204f542)"><g clip-path="url(#4616d6e143)"><path fill="#ffffff" d="M 135.300781 111.824219 L 161.550781 111.824219 L 161.550781 138.449219 L 135.300781 138.449219 Z M 135.300781 111.824219 " fill-opacity="1" fill-rule="nonzero"/></g></g><g clip-path="url(#7528421d72)"><g clip-path="url(#d1a5a49b0d)"><path fill="#ffffff" d="M 135.75 196.351562 L 166.574219 196.351562 L 166.574219 224.699219 L 135.75 224.699219 Z M 135.75 196.351562 " fill-opacity="1" fill-rule="nonzero"/></g></g><g clip-path="url(#c671d9eb66)"><g clip-path="url(#d409eac37d)"><path fill="#ffffff" d="M 113.175781 199.050781 L 129.449219 199.050781 L 129.449219 217.949219 L 113.175781 217.949219 Z M 113.175781 199.050781 " fill-opacity="1" fill-rule="nonzero"/></g></g><g clip-path="url(#e0aeabfea6)"><g clip-path="url(#4ae23ddd10)"><path fill="#ffffff" d="M 93.523438 152.550781 L 113.398438 152.550781 L 113.398438 168.898438 L 93.523438 168.898438 Z M 93.523438 152.550781 " fill-opacity="1" fill-rule="nonzero"/></g></g><g clip-path="url(#dba47d4ae8)"><g clip-path="url(#7e1277d55f)"><path fill="#ffffff" d="M 127.574219 165.375 L 149.398438 165.375 L 149.398438 190.949219 L 127.574219 190.949219 Z M 127.574219 165.375 " fill-opacity="1" fill-rule="nonzero"/></g></g><g clip-path="url(#631363ed46)"><g clip-path="url(#54191d31ec)"><path fill="#ffffff" d="M 138.976562 173.625 L 146.324219 173.625 L 146.324219 180.898438 L 138.976562 180.898438 Z M 138.976562 173.625 " fill-opacity="1" fill-rule="nonzero"/></g></g><g clip-path="url(#e507472a5f)"><g clip-path="url(#7e16b5db6e)"><path fill="#ffffff" d="M 108.300781 160.273438 L 128.476562 160.273438 L 128.476562 180.601562 L 108.300781 180.601562 Z M 108.300781 160.273438 " fill-opacity="1" fill-rule="nonzero"/></g></g><g clip-path="url(#b4970a8e79)"><g clip-path="url(#12fdc220c8)"><path fill="#ffffff" d="M 156.976562 160.574219 L 171.449219 160.574219 L 171.449219 179.175781 L 156.976562 179.175781 Z M 156.976562 160.574219 " fill-opacity="1" fill-rule="nonzero"/></g></g><g clip-path="url(#9f5d6a11e2)"><g clip-path="url(#bdcba7507d)"><path fill="#ffffff" d="M 156.523438 160.199219 L 171.148438 160.199219 L 171.148438 178.351562 L 156.523438 178.351562 Z M 156.523438 160.199219 " fill-opacity="1" fill-rule="nonzero"/></g></g><g clip-path="url(#2ad7cfa1ef)"><path fill="#000000" d="M 242.632812 93.707031 C 242.628906 93.707031 242.628906 93.707031 242.625 93.707031 C 242.625 93.707031 242.621094 93.707031 242.621094 93.707031 C 242.613281 93.707031 242.605469 93.707031 242.59375 93.707031 C 228.53125 93.707031 218.859375 95.707031 215.675781 97.503906 C 218.863281 99.289062 228.523438 101.285156 242.578125 101.300781 L 242.675781 101.300781 C 256.726562 101.285156 266.390625 99.289062 269.574219 97.503906 C 266.394531 95.707031 256.722656 93.707031 242.65625 93.707031 C 242.648438 93.707031 242.640625 93.707031 242.632812 93.707031 " fill-opacity="1" fill-rule="nonzero"/></g><g clip-path="url(#88d3a1942b)"><path fill="#000000" d="M 277.726562 75.785156 C 277.019531 76.375 277.121094 76.859375 276.925781 77.394531 C 276.820312 77.6875 276.699219 78.074219 276.167969 78.539062 C 276.167969 78.539062 269.359375 85.597656 264.800781 84.085938 C 258.039062 81.847656 261.75 73.140625 261.75 73.140625 L 262.445312 71.617188 C 262.792969 70.855469 263.828125 70.539062 264.246094 70.285156 C 265.011719 69.820312 265.261719 69.980469 265.714844 68.988281 C 266.449219 67.382812 265.761719 64.546875 265.542969 63.953125 C 264.890625 64.292969 262.207031 65.78125 261.472656 67.386719 C 261.023438 68.375 261.585938 68.953125 261.796875 69.703125 C 261.910156 70.117188 262.089844 70.648438 261.742188 71.410156 L 261.046875 72.9375 C 261.046875 72.9375 256.886719 81.300781 250.679688 81.355469 C 243.097656 81.421875 243.070312 69.070312 243.070312 69.070312 C 243.070312 68.164062 243.539062 67.65625 243.875 67.257812 C 244.484375 66.535156 245.40625 66.101562 245.40625 64.917969 C 245.40625 63.050781 243.292969 60.734375 242.675781 60.101562 L 242.675781 60.089844 C 242.664062 60.078125 242.648438 60.058594 242.636719 60.050781 C 242.636719 60.050781 242.632812 60.054688 242.632812 60.054688 C 242.628906 60.054688 242.628906 60.050781 242.625 60.050781 C 242.625 60.050781 242.621094 60.054688 242.621094 60.054688 C 242.617188 60.054688 242.617188 60.050781 242.613281 60.050781 C 242.605469 60.058594 242.589844 60.078125 242.578125 60.089844 L 242.578125 60.101562 C 241.960938 60.734375 239.847656 63.050781 239.847656 64.917969 C 239.847656 66.101562 240.765625 66.535156 241.378906 67.257812 C 241.714844 67.65625 242.183594 68.164062 242.183594 69.070312 C 242.183594 69.070312 242.15625 81.421875 234.574219 81.355469 C 228.367188 81.300781 224.207031 72.9375 224.207031 72.9375 L 223.511719 71.410156 C 223.164062 70.648438 223.34375 70.117188 223.457031 69.703125 C 223.667969 68.953125 224.230469 68.375 223.777344 67.386719 C 223.046875 65.78125 220.359375 64.292969 219.710938 63.953125 C 219.488281 64.546875 218.804688 67.382812 219.535156 68.988281 C 219.988281 69.980469 220.242188 69.820312 221.003906 70.285156 C 221.421875 70.539062 222.460938 70.855469 222.804688 71.617188 L 223.503906 73.140625 C 223.503906 73.140625 227.210938 81.847656 220.453125 84.085938 C 215.890625 85.597656 209.082031 78.539062 209.082031 78.539062 C 208.554688 78.074219 208.433594 77.6875 208.324219 77.394531 C 208.128906 76.859375 208.234375 76.375 207.527344 75.785156 C 206.3125 74.761719 204.125 74.152344 203.667969 74.046875 C 203.792969 74.480469 204.730469 76.566406 205.847656 77.546875 C 206.535156 78.148438 207.183594 77.949219 207.761719 78.304688 C 214.230469 82.285156 214.742188 96.164062 214.742188 96.164062 L 214.800781 96.164062 C 215.699219 94.042969 227.789062 91.894531 242.585938 91.894531 C 242.589844 91.894531 242.660156 91.894531 242.667969 91.894531 C 257.460938 91.894531 269.554688 94.042969 270.453125 96.164062 L 270.507812 96.164062 C 270.507812 96.164062 271.023438 82.285156 277.492188 78.304688 C 278.070312 77.949219 278.71875 78.148438 279.40625 77.546875 C 280.519531 76.566406 281.460938 74.480469 281.582031 74.046875 C 281.128906 74.152344 278.941406 74.761719 277.726562 75.785156 " fill-opacity="1" fill-rule="nonzero"/></g><g fill="#151f28" fill-opacity="1"><g transform="translate(203.626062, 188.699992)"><g><path d="M 41.453125 1.34375 C 34.972656 1.34375 29.203125 0.546875 24.140625 -1.046875 C 19.085938 -2.648438 14.875 -4.753906 11.5 -7.359375 C 8.132812 -9.960938 5.5625 -12.816406 3.78125 -15.921875 L 13.9375 -28.34375 L 15.546875 -28.34375 C 18.359375 -24.15625 21.925781 -20.820312 26.25 -18.34375 C 30.582031 -15.875 35.648438 -14.640625 41.453125 -14.640625 C 46.398438 -14.640625 50.128906 -15.6875 52.640625 -17.78125 C 55.160156 -19.875 56.421875 -22.753906 56.421875 -26.421875 C 56.421875 -28.640625 56.015625 -30.492188 55.203125 -31.984375 C 54.390625 -33.472656 53.046875 -34.75 51.171875 -35.8125 C 49.296875 -36.882812 46.757812 -37.804688 43.5625 -38.578125 L 31.53125 -41.328125 C 23.132812 -43.242188 16.878906 -46.425781 12.765625 -50.875 C 8.648438 -55.332031 6.59375 -61.125 6.59375 -68.25 C 6.59375 -73.539062 7.910156 -78.1875 10.546875 -82.1875 C 13.191406 -86.195312 17.039062 -89.3125 22.09375 -91.53125 C 27.15625 -93.75 33.203125 -94.859375 40.234375 -94.859375 C 47.441406 -94.859375 53.613281 -93.910156 58.75 -92.015625 C 63.882812 -90.117188 68.222656 -87.207031 71.765625 -83.28125 L 62.625 -70.75 L 61.015625 -70.75 C 58.378906 -73.519531 55.351562 -75.597656 51.9375 -76.984375 C 48.53125 -78.367188 44.628906 -79.0625 40.234375 -79.0625 C 35.160156 -79.0625 31.300781 -78.164062 28.65625 -76.375 C 26.007812 -74.582031 24.6875 -72.109375 24.6875 -68.953125 C 24.6875 -66.015625 25.613281 -63.671875 27.46875 -61.921875 C 29.320312 -60.171875 32.53125 -58.804688 37.09375 -57.828125 L 49.375 -55.265625 C 58.457031 -53.347656 65.046875 -50.097656 69.140625 -45.515625 C 73.234375 -40.929688 75.28125 -34.945312 75.28125 -27.5625 C 75.28125 -21.726562 74.019531 -16.644531 71.5 -12.3125 C 68.988281 -7.988281 65.195312 -4.628906 60.125 -2.234375 C 55.050781 0.148438 48.828125 1.34375 41.453125 1.34375 Z M 41.453125 1.34375 "/></g></g></g><g clip-path="url(#d47eb1d8a3)"><path fill="#000000" d="M 221.320312 193.824219 C 220.78125 194.226562 220.25 194.640625 219.703125 195.027344 C 219.238281 195.355469 218.773438 195.703125 218.265625 195.953125 C 217.882812 196.140625 217.425781 196.191406 217.003906 196.304688 C 216.960938 196.253906 216.921875 196.203125 216.878906 196.148438 C 217.160156 195.703125 217.371094 195.183594 217.738281 194.828125 C 218.617188 193.984375 219.570312 193.21875 220.5 192.429688 C 220.859375 192.117188 221.246094 191.835938 221.601562 191.515625 C 222.222656 190.953125 222.792969 190.988281 223.269531 191.683594 C 223.839844 192.511719 224.386719 193.359375 224.921875 194.210938 C 225.367188 194.929688 225.839844 195.640625 226.1875 196.402344 C 226.570312 197.234375 225.898438 198.09375 225.050781 197.902344 C 224.753906 197.835938 224.429688 197.613281 224.257812 197.367188 C 223.847656 196.769531 223.523438 196.117188 223.164062 195.488281 C 223.09375 195.363281 223.019531 195.246094 222.921875 195.085938 C 222.855469 195.191406 222.8125 195.238281 222.792969 195.292969 C 222.015625 197.632812 220.78125 199.75 219.585938 201.890625 C 218.109375 204.535156 216.679688 207.207031 215.003906 209.742188 C 212.816406 213.046875 210.332031 216.105469 207.597656 218.964844 C 201.253906 225.597656 194.191406 231.355469 186.351562 236.152344 C 178.347656 241.046875 169.722656 244.273438 160.472656 245.871094 C 157.382812 246.40625 154.269531 246.457031 151.148438 246.320312 C 149.820312 246.261719 148.492188 246.242188 147.167969 246.199219 C 146.996094 246.195312 146.808594 246.199219 146.660156 246.136719 C 146.527344 246.078125 146.433594 245.929688 146.324219 245.820312 C 146.449219 245.722656 146.5625 245.558594 146.695312 245.539062 C 147.339844 245.460938 147.988281 245.40625 148.636719 245.375 C 150.265625 245.289062 151.894531 245.207031 153.527344 245.144531 C 156.601562 245.019531 159.601562 244.429688 162.585938 243.710938 C 169.855469 241.957031 176.765625 239.328125 183.246094 235.578125 C 188.703125 232.417969 193.796875 228.753906 198.570312 224.644531 C 203.011719 220.824219 207.171875 216.71875 210.765625 212.082031 C 212.5625 209.769531 214.167969 207.316406 215.613281 204.769531 C 217.070312 202.203125 218.484375 199.613281 219.894531 197.019531 C 220.382812 196.125 220.800781 195.195312 221.25 194.277344 C 221.3125 194.152344 221.355469 194.015625 221.40625 193.882812 C 221.378906 193.863281 221.347656 193.84375 221.320312 193.824219 Z M 221.320312 193.824219 " fill-opacity="1" fill-rule="nonzero"/></g></svg>