<svg xmlns="http://www.w3.org/2000/svg" xmlns:xlink="http://www.w3.org/1999/xlink" width="500" zoomAndPan="magnify" viewBox="0 0 375 374.999991" height="500" preserveAspectRatio="xMidYMid meet" version="1.0"><defs><clipPath id="04b6a2f4c0"><path d="M 114.953125 114 L 259.703125 114 L 259.703125 257 L 114.953125 257 Z M 114.953125 114 " clip-rule="nonzero"/></clipPath></defs><g clip-path="url(#04b6a2f4c0)"><path fill="#ffffff" d="M 163.371094 228.863281 C 163.371094 229.449219 162.699219 229.914062 161.851562 229.914062 C 160.890625 230.003906 160.21875 229.535156 160.21875 228.863281 C 160.21875 228.277344 160.890625 227.808594 161.734375 227.808594 C 162.609375 227.722656 163.371094 228.191406 163.371094 228.863281 Z M 154.292969 227.546875 C 154.089844 228.132812 154.671875 228.804688 155.546875 228.980469 C 156.308594 229.273438 157.183594 228.980469 157.359375 228.394531 C 157.535156 227.808594 156.980469 227.136719 156.101562 226.875 C 155.34375 226.667969 154.5 226.960938 154.292969 227.546875 Z M 167.191406 227.046875 C 166.347656 227.253906 165.761719 227.808594 165.851562 228.480469 C 165.9375 229.066406 166.695312 229.449219 167.574219 229.242188 C 168.417969 229.039062 169.003906 228.480469 168.914062 227.898438 C 168.828125 227.339844 168.039062 226.960938 167.191406 227.046875 Z M 186.394531 114.953125 C 145.917969 114.953125 114.953125 145.757812 114.953125 186.328125 C 114.953125 218.769531 135.324219 246.53125 164.421875 256.300781 C 168.15625 256.972656 169.46875 254.664062 169.46875 252.761719 C 169.46875 250.949219 169.382812 240.941406 169.382812 234.800781 C 169.382812 234.800781 148.953125 239.1875 144.664062 226.082031 C 144.664062 226.082031 141.335938 217.570312 136.550781 215.378906 C 136.550781 215.378906 129.867188 210.785156 137.015625 210.871094 C 137.015625 210.871094 144.285156 211.457031 148.28125 218.417969 C 154.671875 229.710938 165.382812 226.464844 169.558594 224.53125 C 170.226562 219.851562 172.125 216.605469 174.226562 214.675781 C 157.914062 212.863281 141.453125 210.492188 141.453125 182.351562 C 141.453125 174.308594 143.671875 170.269531 148.339844 165.121094 C 147.582031 163.222656 145.101562 155.382812 149.097656 145.261719 C 155.199219 143.359375 169.234375 153.15625 169.234375 153.15625 C 175.074219 151.519531 181.347656 150.671875 187.5625 150.671875 C 193.777344 150.671875 200.054688 151.519531 205.890625 153.15625 C 205.890625 153.15625 219.925781 143.328125 226.027344 145.261719 C 230.023438 155.410156 227.542969 163.222656 226.785156 165.121094 C 231.453125 170.300781 234.316406 174.335938 234.316406 182.351562 C 234.316406 210.578125 217.125 212.832031 200.8125 214.675781 C 203.496094 216.984375 205.773438 221.375 205.773438 228.246094 C 205.773438 238.105469 205.6875 250.304688 205.6875 252.703125 C 205.6875 254.605469 207.027344 256.914062 210.734375 256.242188 C 239.917969 246.53125 259.703125 218.769531 259.703125 186.328125 C 259.703125 145.757812 226.875 114.953125 186.394531 114.953125 Z M 143.320312 215.84375 C 142.941406 216.136719 143.027344 216.808594 143.523438 217.367188 C 143.992188 217.835938 144.664062 218.039062 145.042969 217.660156 C 145.421875 217.367188 145.335938 216.695312 144.839844 216.136719 C 144.371094 215.667969 143.699219 215.464844 143.320312 215.84375 Z M 140.167969 213.476562 C 139.964844 213.855469 140.257812 214.324219 140.839844 214.617188 C 141.308594 214.910156 141.890625 214.820312 142.09375 214.410156 C 142.300781 214.03125 142.007812 213.5625 141.425781 213.269531 C 140.839844 213.09375 140.375 213.183594 140.167969 213.476562 Z M 149.625 223.890625 C 149.15625 224.269531 149.332031 225.148438 150.003906 225.703125 C 150.675781 226.375 151.519531 226.464844 151.902344 225.996094 C 152.28125 225.617188 152.105469 224.738281 151.519531 224.183594 C 150.878906 223.507812 150.003906 223.421875 149.625 223.890625 Z M 146.296875 219.589844 C 145.832031 219.882812 145.832031 220.640625 146.296875 221.316406 C 146.765625 221.988281 147.550781 222.28125 147.933594 221.988281 C 148.398438 221.609375 148.398438 220.847656 147.933594 220.175781 C 147.523438 219.5 146.765625 219.210938 146.296875 219.589844 Z M 146.296875 219.589844 " fill-opacity="1" fill-rule="nonzero"/></g></svg>