<svg xmlns="http://www.w3.org/2000/svg" xmlns:xlink="http://www.w3.org/1999/xlink" width="500" zoomAndPan="magnify" viewBox="0 0 375 374.999991" height="500" preserveAspectRatio="xMidYMid meet" version="1.0"><defs><clipPath id="36e8e4c52e"><path d="M 121.910156 121 L 253.160156 121 L 253.160156 254 L 121.910156 254 Z M 121.910156 121 " clip-rule="nonzero"/></clipPath></defs><g clip-path="url(#36e8e4c52e)"><path fill="#ffffff" d="M 187.5625 153.828125 C 168.929688 153.828125 153.902344 168.847656 153.902344 187.472656 C 153.902344 206.09375 168.929688 221.113281 187.5625 221.113281 C 206.195312 221.113281 221.226562 206.09375 221.226562 187.472656 C 221.226562 168.847656 206.195312 153.828125 187.5625 153.828125 Z M 187.5625 209.34375 C 175.523438 209.34375 165.679688 199.535156 165.679688 187.472656 C 165.679688 175.40625 175.492188 165.597656 187.5625 165.597656 C 199.632812 165.597656 209.449219 175.40625 209.449219 187.472656 C 209.449219 199.535156 199.605469 209.34375 187.5625 209.34375 Z M 230.453125 152.449219 C 230.453125 156.8125 226.9375 160.296875 222.601562 160.296875 C 218.238281 160.296875 214.75 156.785156 214.75 152.449219 C 214.75 148.117188 218.265625 144.601562 222.601562 144.601562 C 226.9375 144.601562 230.453125 148.117188 230.453125 152.449219 Z M 252.75 160.414062 C 252.25 149.902344 249.847656 140.589844 242.144531 132.917969 C 234.46875 125.25 225.152344 122.847656 214.632812 122.320312 C 203.792969 121.707031 171.304688 121.707031 160.464844 122.320312 C 149.976562 122.816406 140.660156 125.21875 132.953125 132.890625 C 125.25 140.5625 122.875 149.875 122.347656 160.386719 C 121.734375 171.21875 121.734375 203.691406 122.347656 214.527344 C 122.847656 225.039062 125.25 234.351562 132.953125 242.023438 C 140.660156 249.691406 149.945312 252.09375 160.464844 252.621094 C 171.304688 253.234375 203.792969 253.234375 214.632812 252.621094 C 225.152344 252.125 234.46875 249.722656 242.144531 242.023438 C 249.820312 234.351562 252.222656 225.039062 252.75 214.527344 C 253.363281 203.691406 253.363281 171.25 252.75 160.414062 Z M 238.746094 226.152344 C 236.460938 231.890625 232.035156 236.3125 226.265625 238.625 C 217.621094 242.050781 197.113281 241.261719 187.5625 241.261719 C 178.011719 241.261719 157.476562 242.023438 148.863281 238.625 C 143.121094 236.339844 138.695312 231.917969 136.382812 226.152344 C 132.953125 217.511719 133.746094 197.015625 133.746094 187.472656 C 133.746094 177.925781 132.984375 157.398438 136.382812 148.789062 C 138.667969 143.050781 143.089844 138.628906 148.863281 136.316406 C 157.503906 132.890625 178.011719 133.679688 187.5625 133.679688 C 197.113281 133.679688 217.652344 132.917969 226.265625 136.316406 C 232.007812 138.601562 236.429688 143.023438 238.746094 148.789062 C 242.171875 157.429688 241.382812 177.925781 241.382812 187.472656 C 241.382812 197.015625 242.171875 217.542969 238.746094 226.152344 Z M 238.746094 226.152344 " fill-opacity="1" fill-rule="nonzero"/></g></svg>